<svg xmlns="http://www.w3.org/2000/svg" viewBox="0 0 180 180"><g fill="none" fill-rule="evenodd"><path fill="#42FFDE" d="M118 34l-29.916.084L88 64l29.916-.084z"/><path d="M103.031 124a10.926 10.926 0 0110.97 10.969c-.018 6.075-4.957 11.014-11.032 11.031A10.926 10.926 0 0192 135.031c.017-6.075 4.956-11.014 11.031-11.031zM60.031 124a10.926 10.926 0 0110.97 10.969c-.018 6.075-4.957 11.014-11.032 11.031A10.926 10.926 0 0149 135.031c.017-6.075 4.956-11.014 11.031-11.031zM17.031 124a10.926 10.926 0 0110.97 10.969c-.018 6.075-4.957 11.014-11.032 11.031A10.926 10.926 0 016 135.031c.017-6.075 4.956-11.014 11.031-11.031zM103.031 81a10.926 10.926 0 0110.97 10.969c-.018 6.075-4.957 11.014-11.032 11.031A10.926 10.926 0 0192 92.031c.017-6.075 4.956-11.014 11.031-11.031zM60.031 81a10.926 10.926 0 0110.97 10.969c-.018 6.075-4.957 11.014-11.032 11.031A10.926 10.926 0 0149 92.031c.017-6.075 4.956-11.014 11.031-11.031zM17.031 81a10.926 10.926 0 0110.97 10.969c-.018 6.075-4.957 11.014-11.032 11.031A10.926 10.926 0 016 92.031C6.017 85.956 10.956 81.017 17.031 81zM60.031 38a10.926 10.926 0 0110.97 10.969C70.982 55.044 66.043 59.983 59.968 60A10.926 10.926 0 0149 49.031c.017-6.075 4.956-11.014 11.031-11.031zM17.031 38a10.926 10.926 0 0110.97 10.969C27.982 55.044 23.043 59.983 16.968 60A10.926 10.926 0 016 49.031C6.017 42.956 10.956 38.017 17.031 38z" stroke="#003DFF" stroke-width="3"/></g></svg>
