<svg xmlns="http://www.w3.org/2000/svg" viewBox="0 0 180 180"><g fill="none" fill-rule="evenodd"><path fill="#42FFDE" d="M121 31.623L180.397 91 121 150.377 61.603 91z"/><g stroke="#003DFF" stroke-width="3"><path d="M50.077 125.482c-4.1 4.1-4.1 10.75 0 14.851 4.1 4.102 10.747 4.102 14.846 0 4.1-4.1 4.1-10.75 0-14.851-4.1-4.102-10.747-4.102-14.846 0zM28.863 104.273c-4.1 4.101-4.1 10.75 0 14.852 4.1 4.101 10.747 4.101 14.847 0s4.1-10.75 0-14.852c-4.1-4.101-10.747-4.101-14.847 0zM7.65 83.065c-4.1 4.1-4.1 10.75 0 14.851 4.1 4.102 10.747 4.102 14.847 0 4.1-4.1 4.1-10.75 0-14.851-4.1-4.102-10.747-4.102-14.847 0zM71.29 104.273c-4.1 4.101-4.1 10.75 0 14.852 4.1 4.101 10.747 4.101 14.847 0s4.1-10.75 0-14.852c-4.1-4.101-10.747-4.101-14.847 0zM50.079 83.065c-4.1 4.1-4.1 10.75 0 14.851 4.1 4.102 10.747 4.102 14.846 0 4.1-4.1 4.1-10.75 0-14.851-4.1-4.102-10.746-4.102-14.846 0zM28.863 61.856c-4.1 4.101-4.1 10.75 0 14.852 4.1 4.101 10.747 4.101 14.847 0s4.1-10.75 0-14.852c-4.1-4.101-10.747-4.101-14.847 0zM92.507 83.065c-4.1 4.1-4.1 10.75 0 14.851 4.1 4.102 10.747 4.102 14.847 0 4.1-4.1 4.1-10.75 0-14.851-4.1-4.102-10.747-4.102-14.847 0zM71.29 61.856c-4.1 4.101-4.1 10.75 0 14.852 4.1 4.101 10.747 4.101 14.847 0s4.1-10.75 0-14.852c-4.1-4.101-10.747-4.101-14.847 0zM50.077 40.648c-4.1 4.1-4.1 10.75 0 14.851 4.1 4.102 10.747 4.102 14.846 0 4.1-4.1 4.1-10.75 0-14.851-4.1-4.102-10.747-4.102-14.846 0z"/></g></g></svg>
