<svg xmlns="http://www.w3.org/2000/svg" viewBox="0 0 180 180"><g fill="none" fill-rule="evenodd"><g transform="translate(36 36)" fill="#42FFDE"><path d="M54.5 0C84.6 0 109 24.177 109 54s-24.4 54-54.5 54S0 83.823 0 54 24.4 0 54.5 0zm0 17C33.79 17 17 33.565 17 54s16.79 37 37.5 37S92 74.435 92 54 75.21 17 54.5 17z"/><circle transform="rotate(-45 54.5 54.5)" cx="54.5" cy="54.5" r="18"/></g><circle stroke="#003DFF" stroke-width="3" transform="rotate(-45 42.5 124.5)" cx="42.5" cy="124.5" r="11.5"/><circle stroke="#003DFF" stroke-width="3" transform="rotate(-45 132 45)" cx="132" cy="45" r="20"/><circle stroke="#003DFF" stroke-width="3" transform="rotate(-45 30.5 28.5)" cx="30.5" cy="28.5" r="11.5"/><circle stroke="#003DFF" stroke-width="3" transform="rotate(-45 20 56)" cx="20" cy="56" r="6"/><circle stroke="#003DFF" stroke-width="3" transform="rotate(-45 163.5 87.5)" cx="163.5" cy="87.5" r="11.5"/><circle stroke="#003DFF" stroke-width="3" transform="rotate(-45 126.5 149.5)" cx="126.5" cy="149.5" r="11.5"/><circle stroke="#003DFF" stroke-width="3" transform="rotate(-45 80.5 55.5)" cx="80.5" cy="55.5" r="8.5"/><circle stroke="#003DFF" stroke-width="3" transform="rotate(-45 136.5 118.621)" cx="136.5" cy="118.621" r="7"/></g></svg>
